# xmcd
#
# Track frame offsets:
#	150
#	31641
#	84527
#	106938
#	151111
#	193399
#	231172
#	279663
#	310093
#
# Disc length: 4464 seconds
#
# Revision: 0
# Processed by: cddbd v1.5.2PL0 Copyright (c) Steve Scherf et al.
# Submitted via: audiograbber 1.83.01
#
DISCID=6a116e09
DTITLE=Grateful Dead - 82-02-17 Warfield Theatre, San Francisco CA
DYEAR=1900
DGENRE=
TTITLE0=Minglewood Blues
TTITLE1=Sugaree
TTITLE2=On The Raod Again
TTITLE3=Bird Song
TTITLE4=CC Rider
TTITLE5=Tennessee Jed
TTITLE6=It's All Over Now
TTITLE7=Loser
TTITLE8=Man Smart, Woman Smarter
EXTD=
EXTT0=
EXTT1=
EXTT2=
EXTT3=
EXTT4=
EXTT5=
EXTT6=
EXTT7=
EXTT8=
PLAYORDER=
